<svg width="112" height="32" viewBox="0 0 112 32" fill="none" xmlns="http://www.w3.org/2000/svg">
<rect width="32" height="32" rx="12" fill="#A61D3E"/>
<path d="M16.3697 23.216C15.4097 23.216 14.5217 23.042 13.7057 22.694C12.8897 22.346 12.1757 21.86 11.5637 21.236C10.9517 20.612 10.4717 19.88 10.1237 19.04C9.78773 18.2 9.61973 17.282 9.61973 16.286C9.61973 15.29 9.78173 14.372 10.1057 13.532C10.4417 12.68 10.9097 11.948 11.5097 11.336C12.1217 10.712 12.8357 10.232 13.6517 9.896C14.4677 9.548 15.3557 9.374 16.3157 9.374C17.2757 9.374 18.1337 9.536 18.8897 9.86C19.6577 10.184 20.3057 10.616 20.8337 11.156C21.3617 11.684 21.7397 12.266 21.9677 12.902L19.7897 13.946C19.5377 13.25 19.1117 12.686 18.5117 12.254C17.9117 11.822 17.1797 11.606 16.3157 11.606C15.4757 11.606 14.7317 11.804 14.0837 12.2C13.4477 12.596 12.9497 13.142 12.5897 13.838C12.2417 14.534 12.0677 15.35 12.0677 16.286C12.0677 17.222 12.2477 18.044 12.6077 18.752C12.9797 19.448 13.4897 19.994 14.1377 20.39C14.7857 20.786 15.5297 20.984 16.3697 20.984C17.0537 20.984 17.6837 20.852 18.2597 20.588C18.8357 20.312 19.2977 19.928 19.6457 19.436C19.9937 18.932 20.1677 18.338 20.1677 17.654V16.628L21.2837 17.6H16.3157V15.53H22.6157V16.88C22.6157 17.912 22.4417 18.824 22.0937 19.616C21.7457 20.408 21.2717 21.074 20.6717 21.614C20.0837 22.142 19.4177 22.544 18.6737 22.82C17.9297 23.084 17.1617 23.216 16.3697 23.216Z" fill="#FFF6F5"/>
<path d="M51.4121 12.1807L49.6807 13.8945C48.585 12.7344 47.3076 12.1543 45.8486 12.1543C44.5771 12.1543 43.5107 12.5762 42.6494 13.4199C41.7939 14.2637 41.3662 15.2891 41.3662 16.4961C41.3662 17.7441 41.8115 18.8018 42.7021 19.6689C43.5928 20.5361 44.6914 20.9697 45.998 20.9697C46.8477 20.9697 47.5625 20.791 48.1426 20.4336C48.7285 20.0762 49.2002 19.5166 49.5576 18.7549H45.8135V16.4434H52.3174L52.335 16.9883C52.335 18.1191 52.042 19.1914 51.4561 20.2051C50.8701 21.2188 50.1113 21.9922 49.1797 22.5254C48.248 23.0586 47.1553 23.3252 45.9014 23.3252C44.5596 23.3252 43.3613 23.0352 42.3066 22.4551C41.2578 21.8691 40.4258 21.0371 39.8105 19.959C39.2012 18.8809 38.8965 17.7178 38.8965 16.4697C38.8965 14.7588 39.4619 13.2705 40.5928 12.0049C41.9346 10.499 43.6807 9.74609 45.8311 9.74609C46.9561 9.74609 48.0078 9.9541 48.9863 10.3701C49.8125 10.7217 50.6211 11.3252 51.4121 12.1807ZM54.7607 10.0713H57.3711C58.8008 10.0713 59.8174 10.2002 60.4209 10.458C61.0303 10.71 61.5195 11.1318 61.8887 11.7236C62.2578 12.3154 62.4424 13.0156 62.4424 13.8242C62.4424 14.6738 62.2373 15.3857 61.8271 15.96C61.4229 16.5283 60.8105 16.959 59.9902 17.252L63.0488 23H60.3594L57.4502 17.5244H57.2217V23H54.7607V10.0713ZM57.2217 15.125H57.9951C58.7803 15.125 59.3193 15.0225 59.6123 14.8174C59.9111 14.6123 60.0605 14.2725 60.0605 13.7979C60.0605 13.5166 59.9873 13.2734 59.8408 13.0684C59.6943 12.8574 59.498 12.708 59.252 12.6201C59.0059 12.5264 58.5547 12.4795 57.8984 12.4795H57.2217V15.125ZM68.9727 10.0713H71.4688L76.4434 23H73.8857L72.875 20.3369H67.6016L66.5469 23H63.9893L68.9727 10.0713ZM70.2383 13.499L68.5156 17.9375H71.9521L70.2383 13.499ZM78.3682 10.0713H80.7236L86.2695 18.5791V10.0713H88.7305V23H86.3662L80.8291 14.5186V23H78.3682V10.0713ZM95.6211 10.0713H98.1172L103.092 23H100.534L99.5234 20.3369H94.25L93.1953 23H90.6377L95.6211 10.0713ZM96.8867 13.499L95.1641 17.9375H98.6006L96.8867 13.499ZM103.733 10.0713H110.879V12.4971H108.523V23H106.027V12.4971H103.733V10.0713Z" fill="white"/>
</svg>
